{
  "accessors": [
    {
      "bufferView": 2,
      "componentType": 5126,
      "count": 12162,
      "max": [
        1.0773409605026245,
        1.0773409605026245,
        8.279336929321289
      ],
      "min": [
        -1.0773409605026245,
        -1.0773409605026245,
        0.0020953731145709753
      ],
      "type": "VEC3"
    },
    {
      "bufferView": 2,
      "byteOffset": 145944,
      "componentType": 5126,
      "count": 12162,
      "max": [
        0.9999986886978149,
        0.9999986886978149,
        1.0
      ],
      "min": [
        -0.9999986886978149,
        -0.9999986886978149,
        -1.0
      ],
      "type": "VEC3"
    },
    {
      "bufferView": 1,
      "componentType": 5126,
      "count": 12162,
      "max": [
        0.0,
        0.0
      ],
      "min": [
        0.0,
        0.0
      ],
      "type": "VEC2"
    },
    {
      "bufferView": 0,
      "componentType": 5125,
      "count": 72960,
      "type": "SCALAR"
    }
  ],
  "asset": {
    "extras": {
      "author": "LightSwitch (https://sketchfab.com/edwardlewis450)",
      "license": "CC-BY-4.0 (http://creativecommons.org/licenses/by/4.0/)",
      "source": "https://sketchfab.com/3d-models/glass-bottle-2b116c282f054383917cceeac221993e",
      "title": "Glass Bottle"
    },
    "generator": "Sketchfab-12.68.0",
    "version": "2.0"
  },
  "bufferViews": [
    {
      "buffer": 0,
      "byteLength": 291840,
      "name": "floatBufferViews",
      "target": 34963
    },
    {
      "buffer": 0,
      "byteLength": 97296,
      "byteOffset": 291840,
      "byteStride": 8,
      "name": "floatBufferViews",
      "target": 34962
    },
    {
      "buffer": 0,
      "byteLength": 291888,
      "byteOffset": 389136,
      "byteStride": 12,
      "name": "floatBufferViews",
      "target": 34962
    }
  ],
  "buffers": [
    {
      "byteLength": 681024,
      "uri": "scene.bin"
    }
  ],
  "extensionsUsed": [
    "KHR_materials_transmission"
  ],
  "materials": [
    {
      "alphaMode": "BLEND",
      "doubleSided": true,
      "extensions": {
        "KHR_materials_transmission": {
          "transmissionFactor": 1.0
        }
      },
      "name": "Material.001",
      "pbrMetallicRoughness": {
        "baseColorFactor": [
          0.3133414411917536,
          1.0,
          0.26651984652910465,
          0.25
        ],
        "metallicFactor": 0.0,
        "roughnessFactor": 0.056431607172172264
      }
    }
  ],
  "meshes": [
    {
      "name": "Circle_Material.001_0",
      "primitives": [
        {
          "attributes": {
            "NORMAL": 1,
            "POSITION": 0,
            "TEXCOORD_0": 2
          },
          "indices": 3,
          "material": 0,
          "mode": 4
        }
      ]
    }
  ],
  "nodes": [
    {
      "children": [
        1
      ],
      "matrix": [
        1.0,
        0.0,
        0.0,
        0.0,
        0.0,
        2.220446049250313e-16,
        -1.0,
        0.0,
        0.0,
        1.0,
        2.220446049250313e-16,
        0.0,
        0.0,
        0.0,
        0.0,
        1.0
      ],
      "name": "Sketchfab_model"
    },
    {
      "children": [
        2
      ],
      "matrix": [
        1.0,
        0.0,
        0.0,
        0.0,
        0.0,
        0.0,
        1.0,
        0.0,
        0.0,
        -1.0,
        0.0,
        0.0,
        0.0,
        0.0,
        0.0,
        1.0
      ],
      "name": "f3d9cb35da314be6b3eeb0e466dcffd4.fbx"
    },
    {
      "children": [
        3
      ],
      "name": "RootNode"
    },
    {
      "children": [
        4
      ],
      "matrix": [
        44.02116775512695,
        0.0,
        0.0,
        0.0,
        0.0,
        -7.171958558287065e-06,
        -44.02116775512637,
        0.0,
        0.0,
        44.02116775512637,
        -7.171958558287065e-06,
        0.0,
        0.0,
        0.0,
        0.0,
        1.0
      ],
      "name": "Circle"
    },
    {
      "mesh": 0,
      "name": "Circle_Material.001_0"
    }
  ],
  "scene": 0,
  "scenes": [
    {
      "name": "Sketchfab_Scene",
      "nodes": [
        0
      ]
    }
  ]
}
